<?xml version="1.0" standalone="no"?>
<!DOCTYPE svg PUBLIC "-//W3C//DTD SVG 20010904//EN"
 "http://www.w3.org/TR/2001/REC-SVG-20010904/DTD/svg10.dtd">
<svg version="1.0" xmlns="http://www.w3.org/2000/svg"
 width="220.000000pt" height="220.000000pt" viewBox="0 0 220.000000 220.000000"
 preserveAspectRatio="xMidYMid meet">
<metadata>
Created by potrace 1.11, written by Peter Selinger 2001-2013
</metadata>
<g transform="translate(0.000000,220.000000) scale(0.100000,-0.100000)"
fill="#000000" stroke="none">
<path d="M250 1100 l0 -1100 850 0 c560 0 850 3 850 10 0 6 -6 10 -12 10 -8 0
-14 16 -16 40 -2 32 0 38 13 34 13 -6 15 108 15 1050 l0 1056 -850 0 -850 0 0
-1100z m885 1069 c40 -24 41 -45 1 -42 -24 2 -26 -1 -26 -37 0 -21 -2 -44 -3
-52 -2 -7 -2 -10 0 -5 3 4 14 7 24 7 11 0 29 5 40 10 10 6 19 7 19 3 0 -5 -21
-16 -46 -26 -44 -16 -49 -16 -95 0 -27 10 -49 21 -49 25 0 15 18 17 30 3 7 -8
23 -15 36 -15 22 0 24 4 24 50 0 51 -6 60 -28 38 -9 -9 -16 -9 -28 4 -15 15
-15 16 5 23 11 3 29 2 39 -4 19 -10 32 -6 32 11 0 5 -10 6 -22 2 -20 -6 -21
-5 -9 10 17 20 13 20 56 -5z m-126 -48 c9 -16 4 -25 -29 -55 -44 -40 -42 -39
-220 -41 -118 -1 -231 -13 -274 -31 -14 -5 -17 -3 -14 7 7 21 137 56 222 61
42 2 76 0 76 -3 0 -4 10 -9 22 -12 30 -8 90 29 83 52 -4 13 2 17 25 19 35 3
37 -6 9 -42 l-20 -26 26 0 c30 0 99 60 77 68 -7 2 -20 -4 -27 -14 -13 -17 -14
-17 -15 -2 0 15 24 37 42 38 4 0 12 -9 17 -19z m225 3 c16 -16 21 -34 10 -34
-4 0 -12 7 -19 17 -8 11 -14 12 -19 5 -11 -18 27 -48 83 -67 57 -19 73 -15 47
10 -25 25 -19 29 10 6 17 -13 41 -21 67 -21 36 0 38 2 26 17 -12 15 -12 16 6
9 11 -5 42 -8 68 -7 67 3 217 -40 217 -61 0 -6 -8 -7 -17 -3 -10 4 -38 8 -63
10 -25 2 -58 9 -74 15 -18 6 -81 10 -160 8 -127 -3 -132 -2 -177 24 -51 30
-66 53 -48 74 15 18 24 18 43 -2z m86 -13 c0 -5 -11 -8 -25 -8 -14 0 -28 3
-31 8 -3 5 9 9 25 9 17 0 31 -4 31 -9z m-496 -30 c-15 -15 -24 -17 -43 -10
-29 11 -23 19 21 28 42 10 47 5 22 -18z m591 9 c16 -7 17 -9 3 -9 -9 -1 -18
-6 -20 -12 -2 -6 -12 -1 -22 10 -19 21 -19 21 0 20 10 0 28 -4 39 -9z m-347
-18 c6 -18 -15 -14 -22 4 -4 10 -1 14 6 12 6 -2 14 -10 16 -16z m86 3 c-6 -16
-24 -21 -24 -7 0 11 11 22 21 22 5 0 6 -7 3 -15z m151 -3 c-3 -3 -11 0 -18 7
-9 10 -8 11 6 5 10 -3 15 -9 12 -12z m-525 -70 c0 -12 -136 -45 -155 -38 -22
8 -18 25 8 36 28 11 147 13 147 2z m799 -7 c6 -6 7 -16 1 -24 -7 -13 -20 -12
-89 4 -44 11 -77 23 -75 27 7 10 151 5 163 -7z m-1139 -31 c0 -29 -3 -29 45
-4 40 20 105 27 105 11 0 -5 -15 -12 -34 -15 -18 -4 -54 -25 -80 -47 -28 -25
-51 -38 -58 -33 -7 4 -10 4 -6 -1 4 -4 -3 -16 -15 -25 -12 -10 -19 -21 -16
-25 4 -3 21 6 38 21 32 26 61 27 61 0 0 -9 -7 -12 -20 -9 -26 7 -58 -21 -77
-65 -13 -32 -13 -202 1 -547 5 -100 5 -100 -12 -65 -15 30 -17 70 -15 293 0
141 -2 257 -6 257 -11 0 -41 67 -37 82 1 7 1 10 -1 6 -3 -5 -11 -8 -18 -8 -7
0 -16 -6 -18 -12 -3 -7 -6 6 -6 30 -1 23 3 42 8 42 5 0 24 -12 41 -26 21 -18
28 -29 20 -34 -9 -6 -9 -13 0 -30 10 -18 14 -20 21 -9 5 8 9 22 9 31 0 29 -38
106 -58 117 -17 9 -19 7 -14 -16 3 -18 1 -24 -7 -19 -17 11 -13 47 7 62 26 20
50 17 77 -10 24 -24 25 -24 35 -6 15 27 12 60 -4 60 -8 0 -16 -5 -18 -12 -3
-7 -9 -8 -18 -3 -9 6 -4 13 21 26 40 20 49 17 49 -17z m1398 6 c3 0 0 -6 -7
-12 -11 -10 -14 -10 -18 0 -9 24 -33 13 -33 -16 0 -40 19 -56 39 -32 39 46
110 28 97 -23 -3 -15 -11 -27 -17 -27 -6 0 -8 9 -4 20 9 28 -11 25 -30 -4 -35
-54 -42 -153 -9 -125 19 16 18 43 -1 35 -25 -9 -17 11 16 38 40 34 46 33 51
-9 3 -29 1 -34 -12 -30 -13 4 -24 -8 -43 -46 -34 -64 -35 -81 -5 -70 12 4 24
14 26 21 3 7 0 10 -7 6 -18 -12 -12 10 8 28 22 20 28 13 29 -30 0 -25 -3 -31
-16 -27 -11 3 -24 -7 -37 -29 -18 -30 -20 -51 -20 -228 -1 -158 -4 -204 -18
-240 -16 -44 -16 -41 -12 150 3 107 6 236 6 285 1 50 5 98 10 108 6 9 6 17 1
17 -5 0 -14 17 -20 38 -15 50 -44 76 -77 70 -31 -6 -36 21 -5 29 11 3 20 9 20
13 0 17 -65 61 -106 72 -24 7 -44 16 -44 20 0 16 76 8 115 -12 22 -11 41 -20
42 -20 2 0 3 14 3 30 l0 30 36 -15 c20 -8 39 -15 42 -15z m-802 -5 c16 -8 48
-15 71 -15 23 0 44 -4 48 -9 10 -17 -30 -17 -94 0 -61 16 -65 16 -105 -2 -35
-17 -37 -19 -11 -14 28 5 29 5 10 -10 -11 -8 -26 -19 -33 -25 -7 -6 -22 -8
-33 -5 -16 5 -20 3 -17 -6 3 -10 22 -14 57 -14 31 1 50 -3 48 -10 -9 -26 -127
-8 -127 20 0 26 51 75 78 75 15 1 38 7 52 15 14 8 26 14 26 15 1 0 15 -7 30
-15z m329 5 c-3 -5 -15 -10 -25 -10 -25 0 -35 -17 -13 -24 10 -3 -6 -3 -36 -1
-29 2 -58 8 -65 14 -6 5 -20 11 -31 15 -11 3 9 3 45 1 36 -3 72 0 80 5 20 13
53 13 45 0z m39 -21 c-31 -12 -40 -9 -20 6 10 8 24 11 29 8 6 -4 2 -10 -9 -14z
m-344 -29 c0 -6 -19 -10 -42 -10 -24 0 -38 4 -31 8 18 11 73 12 73 2z m164
-40 c10 -27 23 -50 28 -50 12 0 1 -125 -13 -151 -5 -11 -28 -18 -71 -22 -35
-3 -64 -4 -66 -2 -6 6 81 29 99 26 11 -1 21 10 28 30 13 38 15 109 3 109 -5 0
-15 19 -22 43 -14 44 -30 70 -30 48 0 -7 -5 -9 -10 -6 -14 9 -2 25 19 25 11 0
23 -16 35 -50z m229 44 c3 -3 2 -17 -3 -30 -8 -20 -6 -24 8 -24 9 -1 3 -7 -15
-15 -18 -8 -33 -19 -33 -24 0 -6 -10 -15 -22 -22 -19 -10 -25 -7 -59 29 -21
23 -49 44 -63 48 -14 3 -26 13 -26 21 0 10 6 13 16 9 9 -3 24 -6 35 -6 12 0
26 -15 39 -40 11 -22 26 -40 34 -40 25 0 66 41 66 66 0 20 -5 24 -27 24 -40 0
-62 -15 -45 -32 10 -10 14 -10 21 1 5 7 13 12 19 10 7 -3 5 -11 -4 -24 -11
-15 -18 -17 -32 -9 -22 14 -28 44 -10 55 15 10 92 12 101 3z m-773 -8 c0 -11
-51 -35 -64 -30 -25 9 -19 22 12 27 45 7 52 7 52 3z m898 -6 l27 0 -25 -21
c-22 -18 -23 -20 -5 -17 23 3 45 -9 45 -24 0 -7 -4 -7 -13 1 -10 8 -19 7 -33
-4 -10 -8 -39 -15 -63 -15 -102 0 -121 -91 -36 -170 51 -47 68 -96 62 -176 -6
-83 -24 -123 -70 -158 -40 -31 -44 -31 -49 -8 -2 11 11 28 36 47 22 17 44 29
47 28 4 -1 7 8 8 20 0 12 3 49 7 83 8 75 -19 149 -58 159 -30 8 -58 47 -65 90
-5 29 -1 39 25 64 19 20 45 33 71 37 51 8 73 30 48 49 -21 15 -22 29 -1 21 9
-3 28 -6 42 -6z m-406 -47 c15 -14 30 -38 33 -54 13 -56 -47 -129 -105 -129
-54 0 -110 52 -110 103 0 99 111 148 182 80z m-537 3 c7 3 16 1 20 -5 3 -6 17
-11 31 -11 30 0 60 -14 92 -43 25 -23 30 -73 9 -102 -19 -25 -31 -4 -16 29 25
55 -13 96 -90 96 -20 0 -46 6 -57 14 -13 10 -23 11 -31 4 -16 -13 -17 4 -1 20
7 7 16 8 21 3 5 -5 15 -7 22 -5z m667 -33 c20 -21 39 -48 42 -60 4 -11 13 -24
21 -27 8 -3 15 -13 15 -21 0 -12 -8 -15 -27 -13 -21 2 -29 11 -41 46 -7 23
-18 42 -23 42 -5 0 -9 8 -9 17 0 9 -7 25 -17 35 -31 35 3 18 39 -19z m-819
-30 c4 -3 -1 -12 -11 -20 -16 -12 -16 -14 2 -28 23 -17 14 -20 -15 -5 -21 12
-26 46 -6 53 18 8 23 8 30 0z m257 -13 c0 -5 -9 -6 -21 -3 -12 3 -24 1 -28 -4
-3 -6 -27 -7 -56 -3 -50 6 -50 6 -15 13 78 15 120 14 120 -3z m825 5 l50 -15
-63 3 c-86 4 -93 -7 -52 -79 17 -31 29 -58 27 -60 -8 -9 -77 102 -77 123 0 23
23 42 50 43 8 0 38 -7 65 -15z m179 9 c34 -13 4 -65 -37 -63 l-22 0 23 9 c25
11 30 40 6 40 -8 0 -12 5 -9 10 7 12 17 12 39 4z m-426 -111 c8 -7 28 -13 43
-13 31 0 82 -52 77 -79 -4 -18 -48 -29 -48 -12 0 6 7 11 15 11 8 0 15 4 15 8
0 14 -40 52 -55 52 -8 0 -30 8 -50 17 -32 15 -35 20 -34 57 l1 41 10 -35 c5
-19 17 -41 26 -47z m265 29 c36 -34 34 -42 -10 -32 -41 10 -79 42 -68 59 9 16
45 4 78 -27z m-998 8 c-36 -40 -145 -51 -158 -17 -3 9 12 12 64 9 44 -3 69 0
69 6 0 6 -10 13 -22 15 -13 2 -3 5 21 6 43 1 44 1 26 -19z m89 11 c12 -19 -7
-41 -42 -51 -56 -15 -59 -13 -22 25 34 35 54 43 64 26z m991 -4 c-26 -20 -8
-26 50 -17 57 9 68 5 41 -16 -36 -26 -106 -14 -146 26 l-20 20 47 0 c42 0 45
-1 28 -13z m-1357 -19 c15 -15 16 -31 0 -22 -7 5 -8 3 -4 -5 5 -7 13 -10 20
-8 6 3 12 -3 12 -12 1 -9 5 -25 9 -36 5 -14 0 -11 -17 9 -14 17 -30 26 -36 22
-8 -5 -12 4 -12 28 0 38 8 44 28 24z m408 -16 c-14 -28 -46 -61 -46 -48 0 11
45 76 53 76 4 0 1 -13 -7 -28z m51 -28 c-4 -4 -17 -12 -29 -18 -29 -14 -68
-90 -68 -131 0 -61 21 -109 66 -151 29 -28 42 -47 38 -57 -5 -14 -10 -13 -40
6 -18 12 -34 25 -34 30 0 13 17 7 35 -13 19 -21 35 -26 35 -12 0 11 -49 36
-70 37 -21 0 -38 41 -45 111 -6 50 -3 70 13 108 24 53 63 96 88 96 10 0 14 -3
11 -6z m-228 -43 c-32 -40 -62 -55 -93 -47 -21 5 -26 12 -26 36 0 17 5 30 11
30 6 0 8 -8 4 -20 -5 -15 0 -21 20 -26 22 -5 33 0 63 29 42 42 55 41 21 -2z
m516 24 c-11 -8 -25 -19 -32 -25 -16 -14 -23 -13 -23 3 0 15 35 35 60 36 11 0
9 -4 -5 -14z m676 -53 c18 2 24 9 23 26 0 12 3 22 8 22 5 0 8 -15 6 -32 -2
-26 -8 -34 -26 -36 -13 -2 -31 0 -40 4 -9 4 -20 6 -24 6 -5 -1 -8 6 -8 17 0
12 -9 20 -25 24 -25 4 -25 4 -8 -16 10 -12 27 -29 38 -39 20 -17 20 -17 -2
-18 -13 0 -27 9 -34 23 -6 12 -23 35 -38 50 l-26 29 26 -7 c17 -4 30 -2 35 6
5 9 17 2 39 -25 23 -28 38 -37 56 -34z m-1140 26 c-17 -17 -33 -40 -37 -50 -3
-11 -15 -18 -32 -18 l-27 0 32 19 c17 11 34 30 38 43 8 25 23 38 44 38 8 0 0
-14 -18 -32z m737 17 c1 -1 0 -10 -4 -19 -4 -11 -18 -16 -44 -16 -21 0 -72
-11 -114 -25 -80 -26 -103 -29 -155 -19 -54 11 -33 24 28 17 33 -3 68 -2 78 2
10 4 26 10 37 12 10 2 26 8 35 14 14 9 13 10 -5 6 -12 -3 -28 -1 -35 4 -9 5 7
9 42 9 38 0 61 5 69 15 10 12 52 12 68 0z m-258 -20 c-13 -14 -26 -22 -29 -19
-3 3 5 14 18 25 33 27 39 24 11 -6z m-441 -49 c-12 -40 -14 -43 -33 -32 -12 6
-23 12 -25 13 -2 1 12 20 30 42 39 46 47 39 28 -23z m967 19 c26 -35 26 -36 8
-50 -17 -13 -20 -11 -31 13 -12 27 -17 72 -9 72 3 0 17 -16 32 -35z m-1280 8
c4 -10 8 -99 9 -198 1 -197 9 -244 59 -340 l31 -60 0 -191 c0 -176 2 -194 20
-214 14 -15 26 -19 43 -15 24 6 25 5 19 -39 -6 -44 -6 -46 41 -83 63 -51 75
-63 69 -69 -2 -3 -18 8 -34 23 -17 15 -50 45 -74 66 -39 34 -42 39 -26 48 24
14 21 26 -8 33 -14 4 -35 21 -46 39 -19 29 -20 42 -14 157 7 152 -5 250 -41
313 -38 70 -55 186 -52 362 2 142 -5 197 -22 164 -4 -8 -4 -106 0 -219 6 -218
4 -207 76 -390 18 -47 18 -181 0 -225 -8 -18 -24 -39 -36 -45 -17 -9 -21 -19
-18 -41 3 -16 1 -26 -3 -22 -10 11 -15 90 -6 99 4 4 7 0 7 -9 0 -32 28 -17 44
23 27 68 21 158 -18 258 -47 124 -54 165 -61 372 -6 187 -3 220 20 220 7 0 16
-8 21 -17z m799 7 c-3 -5 -10 -10 -16 -10 -5 0 -9 5 -9 10 0 6 7 10 16 10 8 0
12 -4 9 -10z m802 -2 c10 -17 4 -381 -8 -436 -5 -24 -25 -82 -44 -130 -30 -73
-35 -98 -35 -164 0 -84 19 -148 44 -148 8 0 17 8 20 18 3 9 3 -24 1 -73 -3
-73 -9 -101 -30 -144 -29 -56 -47 -70 -69 -52 -21 18 -32 -6 -12 -28 15 -16
14 -19 -7 -39 -29 -28 -53 -28 -60 -2 l-5 21 -39 -21 c-39 -21 -83 -27 -83
-11 0 5 27 31 60 57 59 48 59 49 53 92 -6 42 -5 43 19 37 47 -12 53 10 58 229
5 197 6 202 33 250 45 80 58 161 58 344 0 156 7 212 28 212 5 0 13 -6 18 -12z
m-646 -42 c-6 -7 -9 -20 -6 -28 8 -19 -55 -35 -66 -17 -5 9 -41 11 -126 7
-127 -6 -158 -2 -144 21 7 11 15 11 41 2 55 -19 107 -15 260 19 52 11 53 11
41 -4z m229 -44 c0 -46 -22 -91 -64 -131 -20 -19 -36 -31 -36 -27 0 5 16 23
36 40 27 24 38 42 45 80 5 26 6 60 3 75 -4 20 -3 23 5 11 6 -8 11 -30 11 -48z
m-772 -89 c7 -12 26 -30 42 -40 31 -18 43 -41 13 -24 -53 28 -84 88 -82 159 2
46 2 46 9 -13 3 -33 12 -70 18 -82z m-259 114 c-2 -1 -14 -11 -26 -21 -23 -19
-23 -19 -23 2 0 17 6 22 27 22 14 0 24 -1 22 -3z m1301 -19 c0 -19 -2 -20 -12
-6 -7 9 -20 18 -28 21 -8 3 -3 6 13 6 21 1 27 -3 27 -21z m-1183 -8 c58 -35
62 -112 11 -167 -27 -29 -102 -32 -134 -5 -48 38 -58 102 -23 146 38 49 93 58
146 26z m1133 3 c78 -46 62 -168 -25 -192 -69 -18 -135 29 -135 99 0 84 89
136 160 93z m-747 -46 c-10 -4 -26 -21 -35 -37 -9 -16 -32 -35 -50 -43 -24
-10 -38 -26 -50 -53 -39 -94 -78 -207 -78 -223 0 -11 14 -56 31 -102 17 -46
37 -104 46 -128 12 -33 24 -46 50 -57 18 -8 42 -29 53 -47 11 -17 28 -35 37
-39 15 -6 15 -7 -4 -7 -12 -1 -25 -5 -28 -11 -9 -15 -51 -12 -65 5 -15 17 -5
49 13 42 6 -2 11 -11 9 -21 -2 -10 4 -16 18 -16 42 0 19 45 -39 74 -45 23 -47
26 -91 142 -56 149 -56 175 0 314 43 107 63 140 85 140 7 0 24 9 39 21 32 25
35 59 6 59 -14 0 -20 -6 -18 -17 4 -24 -26 -24 -30 0 -5 25 33 36 80 23 32 -9
36 -12 21 -19z m347 -3 c0 -15 -6 -24 -15 -24 -9 0 -15 7 -13 17 2 10 -4 19
-14 21 -12 2 -18 -3 -18 -16 0 -22 25 -47 62 -61 32 -12 51 -48 103 -189 43
-118 45 -101 -27 -288 -34 -90 -42 -103 -71 -115 -43 -17 -67 -38 -67 -61 0
-12 7 -18 21 -18 16 0 19 4 14 20 -4 14 -2 20 8 20 20 0 26 -8 20 -30 -6 -22
-51 -36 -66 -21 -6 6 -22 12 -37 12 -20 1 -21 3 -5 6 11 2 29 19 40 36 11 18
34 38 52 46 33 15 50 48 109 214 l27 78 -42 112 c-51 135 -61 151 -105 172
-18 9 -38 27 -45 41 -6 13 -18 27 -28 31 -12 5 -6 10 23 18 52 15 74 9 74 -21z
m-143 12 c5 -8 19 -19 33 -25 l25 -10 -24 0 c-14 -1 -33 7 -43 16 -12 11 -36
17 -68 17 -32 0 -56 -6 -68 -17 -10 -9 -29 -17 -43 -16 l-24 0 25 10 c14 6 28
17 33 25 6 10 27 14 77 14 50 0 71 -4 77 -14z m-77 -42 c0 -17 -45 -84 -57
-84 -7 0 -13 -4 -13 -10 0 -5 6 -10 14 -10 15 0 30 -29 20 -39 -3 -3 -10 2
-15 12 -20 35 -92 10 -128 -45 -22 -35 -27 -34 -12 4 5 13 13 37 16 53 6 26 8
28 15 10 6 -18 9 -17 24 13 9 17 22 32 29 31 9 0 9 -2 0 -6 -7 -2 -13 -11 -13
-19 0 -12 4 -12 25 2 14 9 25 22 25 28 0 7 11 19 25 26 14 7 25 19 25 27 0 7
5 13 10 13 6 0 10 -3 10 -6z m42 -58 c-2 -9 2 -16 8 -16 5 0 10 4 10 10 0 19
46 20 100 3 40 -13 60 -27 77 -52 27 -40 32 -71 8 -51 -8 7 -15 21 -15 30 0
23 -46 60 -74 60 -11 0 -28 -5 -36 -10 -13 -8 -12 -10 5 -11 11 -1 24 -1 29 0
18 4 56 -30 56 -50 0 -25 53 -104 76 -113 9 -4 14 -9 10 -13 -3 -3 -16 2 -28
13 -23 21 -23 21 7 -53 14 -34 15 -49 6 -74 -6 -18 -12 -50 -13 -73 -1 -37 -2
-38 -5 -8 -2 17 -8 32 -13 32 -11 0 -30 -57 -30 -90 0 -31 -34 -80 -56 -80 -8
0 -14 5 -14 10 0 6 5 10 12 10 9 0 9 3 0 12 -14 14 -38 -3 -48 -35 -12 -39
-84 -79 -84 -47 0 6 11 10 25 10 14 0 29 8 35 19 17 33 -7 35 -62 7 -52 -27
-112 -34 -124 -15 -4 8 0 9 15 4 33 -10 63 3 56 25 -5 16 1 20 32 25 130 22
205 87 232 202 10 39 10 65 1 106 -19 92 -115 186 -191 187 -9 0 -20 7 -23 16
-9 25 -7 36 7 31 6 -2 11 -11 9 -21z m-492 -130 c-54 -149 -97 -196 -182 -196
-47 0 -48 1 -48 30 0 29 2 30 44 30 29 0 52 7 70 21 15 11 33 18 41 15 16 -6
31 16 52 74 28 76 3 91 -31 19 -37 -76 -103 -115 -160 -93 -18 7 -23 64 -6 64
6 0 10 -11 10 -25 0 -32 22 -41 59 -25 42 17 69 50 89 108 10 28 27 61 37 72
l19 21 14 -27 c12 -23 11 -33 -8 -88z m955 26 c7 -38 58 -100 93 -113 32 -12
66 6 59 32 -3 10 -1 19 4 19 5 0 9 -13 9 -28 0 -21 -7 -32 -25 -40 -26 -12
-67 -3 -80 17 -10 17 -25 13 -25 -6 -1 -17 -1 -17 -11 0 -5 9 -7 21 -4 26 3 6
-4 9 -15 8 -25 -2 -25 -13 0 -54 21 -34 55 -47 43 -16 -5 13 -3 15 13 8 10 -5
38 -10 62 -13 38 -4 42 -6 42 -32 0 -35 -20 -43 -74 -30 -49 11 -87 47 -118
113 -40 83 -53 143 -39 174 l12 27 24 -30 c13 -16 26 -44 30 -62z m-445 43
c41 13 92 -25 130 -97 23 -42 24 -48 10 -48 -5 0 -10 7 -10 15 0 17 -16 20
-25 5 -3 -5 -11 -10 -18 -10 -8 0 -8 3 1 12 17 17 15 48 -5 70 -20 22 -39 23
-51 3 -7 -13 -10 -12 -20 10 -12 26 -32 34 -32 13 -1 -7 -9 -2 -20 11 -23 26
-17 49 7 26 8 -9 23 -13 33 -10z m-624 -28 c7 -7 -78 -47 -99 -47 -17 0 -25
39 -11 53 7 6 103 2 110 -6z m1232 -21 c3 -28 2 -29 -29 -22 -18 3 -44 14 -58
23 -24 15 -24 17 -6 24 11 5 36 7 55 6 31 -2 35 -6 38 -31z m-1074 -59 c-57
-159 -125 -257 -179 -257 -34 0 -58 26 -45 51 14 25 30 25 23 -1 -6 -24 18
-36 44 -21 10 6 12 11 6 11 -7 0 -13 6 -13 13 0 7 11 13 27 12 23 0 33 10 64
63 21 35 48 97 61 137 12 40 26 71 30 69 4 -3 -4 -37 -18 -77z m180 70 c11
-11 11 -25 -1 -82 -33 -158 21 -278 143 -320 20 -7 32 -15 26 -19 -6 -4 -8
-14 -5 -22 10 -26 -36 -7 -68 27 -29 31 -49 37 -49 15 0 -8 -7 -16 -15 -20
-18 -6 -20 15 -4 31 16 16 3 33 -40 50 -35 15 -36 16 -13 26 18 8 22 16 17 31
-3 12 -13 46 -22 76 -8 30 -20 59 -26 63 -8 6 -5 7 6 3 20 -7 31 15 40 82 4
32 2 45 -9 49 -16 6 -19 23 -3 23 6 0 16 -6 23 -13z m644 -72 c13 -40 40 -101
60 -135 33 -56 39 -61 64 -56 30 6 36 -2 16 -22 -9 -9 -5 -12 21 -12 28 0 32
3 26 21 -5 15 -3 20 6 17 35 -12 15 -68 -25 -68 -61 0 -121 84 -180 248 -29
81 -29 82 -18 82 4 0 18 -34 30 -75z m-794 -35 c-20 -57 -25 -83 -17 -91 8 -8
5 -24 -9 -56 -17 -38 -19 -57 -13 -127 6 -66 4 -84 -8 -94 -11 -10 -21 -10
-41 -1 l-26 12 23 11 c18 9 23 21 25 64 2 32 -1 52 -7 52 -6 0 -11 7 -11 15 0
16 -16 20 -24 6 -3 -5 1 -12 9 -15 13 -5 12 -13 -10 -55 -29 -58 -54 -75 -96
-66 -32 7 -40 25 -10 25 10 0 29 9 42 21 l24 20 -25 -5 c-14 -2 -35 -7 -47
-11 -15 -5 -28 0 -43 15 -12 12 -19 24 -16 28 4 3 12 0 18 -6 18 -18 59 -14
91 7 45 29 113 137 153 243 45 117 58 123 18 8z m458 53 c59 -53 63 -143 9
-197 -28 -28 -38 -31 -91 -31 -51 0 -63 4 -89 29 -58 55 -62 124 -11 185 42
50 134 57 182 14z m286 -5 c23 -74 81 -190 122 -244 48 -64 93 -83 138 -60 28
15 30 14 25 -4 -9 -35 -31 -45 -74 -33 -50 13 -49 -7 1 -23 l34 -11 -29 -15
c-41 -22 -71 -6 -101 54 -13 26 -29 48 -34 48 -6 0 -10 -22 -10 -48 0 -41 4
-51 23 -59 l22 -11 -27 -12 c-22 -10 -30 -10 -43 0 -12 10 -14 28 -8 96 5 70
3 91 -12 125 -14 30 -16 45 -8 57 8 13 3 37 -18 97 -33 91 -31 85 -21 85 4 0
13 -19 20 -42z m-494 1 c-3 -5 -10 -7 -15 -4 -5 4 -23 -7 -39 -24 -25 -24 -30
-26 -30 -11 0 11 15 26 38 38 36 19 58 20 46 1z m-69 -169 c10 -17 23 -11 28
13 3 16 5 13 6 -10 0 -18 1 -35 1 -38 0 -3 -3 -5 -7 -4 -4 0 -10 -8 -13 -17
-9 -25 -40 68 -39 115 l1 36 9 -43 c4 -23 11 -47 14 -52z m415 50 c0 -111
-120 -220 -243 -220 -43 0 -28 24 20 30 55 8 96 36 90 61 -4 15 0 19 17 19 13
0 31 9 40 19 10 11 24 17 31 15 11 -4 24 22 25 49 0 13 -31 7 -36 -8 -9 -21
-25 -19 -17 3 7 19 54 71 66 72 4 0 7 -18 7 -40z m570 -302 c-14 -48 -27 -48
-36 -2 -9 48 0 126 23 194 l18 55 3 -105 c2 -58 -2 -122 -8 -142z m-1545 74
c4 -35 2 -69 -5 -87 -11 -29 -12 -29 -26 -11 -10 15 -14 51 -13 140 l0 121 19
-53 c11 -29 22 -79 25 -110z m658 102 c-3 -8 4 -25 17 -39 20 -22 21 -25 6
-31 -9 -3 -28 2 -44 12 -22 15 -24 19 -9 22 10 2 17 13 17 28 0 13 4 24 10 24
5 0 7 -7 3 -16z m-347 -229 c19 -18 34 -36 34 -40 0 -3 -13 -5 -30 -5 -20 0
-30 5 -30 15 0 9 -6 12 -15 9 -8 -4 -15 -12 -15 -20 0 -19 -6 -18 -30 6 -23
23 -25 41 -8 58 22 22 60 13 94 -23z m988 13 c9 -14 5 -23 -17 -45 -20 -21
-27 -24 -27 -11 0 9 -7 18 -15 22 -9 3 -15 0 -15 -9 0 -10 -10 -15 -30 -15
-16 0 -30 2 -30 5 0 3 15 21 33 40 36 39 81 45 101 13z m-614 -3 c24 -22 114
-23 138 -2 10 9 27 17 38 16 17 0 17 -1 -2 -9 -12 -4 -24 -15 -27 -24 -9 -23
-139 -23 -158 0 -7 9 -22 20 -34 24 -19 8 -18 9 4 9 14 1 32 -6 41 -14z m-291
-66 c-7 -4 -17 -5 -22 -2 -5 3 -3 9 4 14 7 4 17 5 22 2 5 -3 3 -9 -4 -14z
m744 15 c11 -11 -3 -24 -18 -18 -8 4 -12 10 -9 15 6 11 18 12 27 3z m-1118
-46 c-8 -20 -22 -43 -30 -52 -10 -10 -14 -24 -10 -36 7 -21 25 -28 25 -10 0 6
5 10 11 10 8 0 8 -5 -1 -15 -19 -23 -39 -18 -46 13 -3 15 -8 36 -11 47 -5 17
-4 18 10 7 13 -11 17 -10 27 7 8 16 8 21 -1 21 -7 0 -2 11 11 25 30 32 34 27
15 -17z m175 24 c22 -18 21 -42 -1 -42 -6 0 -8 4 -4 9 3 5 1 12 -4 15 -11 7
-25 -29 -17 -42 3 -5 -8 -6 -25 -4 -22 3 -29 9 -29 28 0 12 10 30 22 38 28 20
31 20 58 -2z m414 -27 c-55 -50 -73 -54 -99 -25 -12 13 -31 20 -56 20 -21 0
-41 5 -44 10 -11 18 96 12 117 -7 18 -16 20 -15 51 15 18 19 42 32 56 32 23 0
20 -4 -25 -45z m111 35 c3 -5 -1 -10 -10 -10 -9 0 -13 5 -10 10 3 6 8 10 10
10 2 0 7 -4 10 -10z m86 -3 c-1 -12 -15 -9 -19 4 -3 6 1 10 8 8 6 -3 11 -8 11
-12z m118 -17 c32 -27 36 -28 62 -14 32 16 119 19 119 4 0 -5 -20 -10 -43 -10
-31 0 -49 -6 -62 -20 -28 -31 -56 -24 -103 25 -31 33 -38 45 -25 45 10 -1 33
-14 52 -30z m-159 16 c0 -3 -4 -8 -10 -11 -5 -3 -10 -1 -10 4 0 6 5 11 10 11
6 0 10 -2 10 -4z m618 -8 c16 -16 15 -58 0 -58 -7 0 -24 -3 -38 -6 -16 -4 -20
-2 -13 3 13 9 6 53 -8 53 -5 0 -9 -10 -9 -22 -1 -21 -2 -21 -11 -5 -21 37 47
67 79 35z m-999 -27 c68 -63 20 -181 -73 -181 -39 0 -76 21 -92 51 -39 77 8
159 91 159 34 0 50 -6 74 -29z m877 11 c91 -73 28 -216 -85 -191 -52 12 -81
50 -81 106 0 37 5 50 31 74 37 34 100 40 135 11z m-466 -6 c0 -8 -48 -12 -66
-5 -13 5 -7 8 24 8 23 1 42 -1 42 -3z m-124 -81 c-26 -20 -36 -55 -16 -55 6 0
10 -4 10 -10 0 -15 -21 -12 -34 5 -9 13 -16 13 -44 3 -51 -19 -59 -93 -10 -86
17 2 22 9 20 22 -3 17 -2 18 12 7 23 -20 1 -43 -37 -39 -43 4 -56 30 -34 68
21 36 11 38 -29 8 -39 -30 -44 -38 -44 -76 0 -20 -4 -31 -10 -27 -17 11 -11
-21 10 -48 17 -22 27 -25 79 -24 40 0 68 -5 85 -17 23 -14 26 -23 26 -72 0
-36 -4 -53 -11 -49 -5 4 -7 19 -4 34 7 33 -26 81 -57 81 -20 0 -19 -2 6 -25
14 -13 26 -32 26 -42 0 -14 -7 -11 -28 14 -15 18 -46 39 -70 49 -57 22 -82 59
-82 123 0 28 -4 51 -10 51 -15 0 -32 -40 -27 -66 2 -13 0 -21 -4 -18 -5 3 -9
19 -9 35 0 31 38 79 62 79 9 0 9 -3 -2 -10 -8 -5 -11 -12 -8 -16 4 -3 19 3 34
15 24 19 24 26 0 22 -12 -2 -36 19 -36 32 0 7 4 7 12 -1 35 -35 173 15 221 80
l22 30 3 -28 c3 -21 -3 -34 -22 -49z m249 -14 c61 -35 109 -39 138 -13 19 17
20 16 13 -10 -5 -21 0 -33 24 -56 31 -32 41 -84 18 -98 -8 -5 -9 0 -5 15 6 24
-10 71 -24 71 -4 0 -8 -23 -7 -50 0 -66 -20 -95 -88 -125 -34 -15 -58 -32 -61
-44 -3 -11 -11 -22 -19 -25 -23 -9 -16 31 8 48 25 18 19 31 -10 22 -24 -8 -44
-51 -36 -80 3 -13 1 -27 -5 -30 -7 -5 -11 11 -11 48 0 61 16 86 56 86 28 0 30
8 9 36 -12 15 -16 16 -24 5 -10 -16 -31 -6 -31 15 0 28 47 15 74 -21 26 -34
47 -42 80 -29 25 9 19 24 -9 24 -14 0 -25 5 -25 10 0 6 9 10 20 10 10 0 24 9
30 19 18 35 11 68 -21 95 -40 34 -50 33 -36 -3 15 -41 -4 -63 -52 -59 -28 2
-36 7 -36 22 0 11 5 21 11 23 7 2 11 -4 10 -14 -2 -25 40 -30 46 -6 7 32 -3
53 -34 69 -28 15 -32 15 -40 0 -5 -9 -16 -16 -24 -16 -12 0 -12 3 -2 20 11 17
9 23 -15 48 -17 18 -27 39 -27 58 l0 29 25 -32 c14 -17 50 -45 80 -62z m-461
44 c-9 -14 -18 -25 -20 -25 -2 0 -4 11 -4 25 0 18 5 25 20 25 20 0 20 -1 4
-25z m306 10 c0 -8 -4 -15 -10 -15 -5 0 -10 7 -10 15 0 8 5 15 10 15 6 0 10
-7 10 -15z m310 -5 c0 -11 -3 -20 -8 -20 -4 0 -13 9 -20 20 -11 18 -10 20 8
20 13 0 20 -7 20 -20z m-1045 -86 c-17 -26 -14 -54 5 -54 6 0 16 11 22 25 19
42 31 29 26 -30 -3 -38 -1 -59 8 -66 17 -14 34 -3 34 22 0 24 5 24 38 0 15
-10 34 -21 42 -24 13 -5 13 -5 0 -6 -8 0 -24 6 -34 14 -26 20 -33 19 -39 -5
-3 -11 -12 -20 -19 -20 -21 0 -62 46 -49 55 6 3 11 16 11 28 0 16 -3 18 -12 9
-17 -17 -39 -15 -54 6 -18 23 -17 42 0 42 16 0 31 34 21 50 -3 5 -3 16 2 23 5
8 9 3 11 -16 2 -16 -4 -40 -13 -53z m741 47 c-12 -11 -17 -11 -35 1 -19 14
-19 14 14 14 29 -1 32 -3 21 -15z m-14 -31 c10 0 18 5 18 10 0 6 5 10 10 10
12 0 13 -40 2 -56 -24 -36 -72 -17 -72 28 0 25 3 29 12 20 7 -7 20 -12 30 -12z
m-32 -70 c18 -12 2 -12 -25 0 -13 6 -15 9 -5 9 8 0 22 -4 30 -9z m71 -5 c-18
-8 -38 -15 -45 -15 -15 1 46 28 64 29 8 0 0 -6 -19 -14z m-434 -29 c-11 -22
-12 -23 -33 -7 l-22 16 26 6 c15 4 30 7 34 8 3 0 1 -10 -5 -23z m824 14 c18 0
18 -1 -1 -20 -21 -21 -29 -25 -31 -12 -1 4 -6 16 -11 26 -9 16 -7 18 7 13 9
-4 25 -7 36 -7z m-431 -13 c14 1 38 4 54 8 42 11 25 -11 -20 -25 -29 -10 -45
-10 -75 0 -44 15 -55 37 -11 24 15 -4 38 -7 52 -7z m-110 -61 c0 -19 -23 -33
-28 -18 -6 20 -29 13 -35 -10 -4 -12 -9 -19 -13 -15 -4 3 1 18 10 32 18 28 66
35 66 11z m105 3 c6 -1 25 2 43 6 32 8 33 7 26 -21 -10 -42 -19 -48 -45 -30
-21 14 -24 14 -41 -1 -23 -20 -48 -2 -48 34 0 23 3 25 28 19 15 -4 32 -7 37
-7z m-575 -20 c0 -5 -4 -9 -10 -9 -5 0 -10 7 -10 16 0 8 5 12 10 9 6 -3 10
-10 10 -16z m1178 4 c-6 -34 -196 -153 -246 -153 -9 0 -28 -9 -42 -20 -21 -17
-23 -21 -10 -29 12 -8 7 -13 -22 -26 -21 -8 -40 -15 -43 -15 -9 0 28 69 39 73
6 2 0 2 -14 0 -30 -5 -71 -52 -64 -72 5 -15 -12 -31 -33 -31 -16 0 -4 41 20
68 28 30 11 27 -37 -6 -44 -31 -64 -57 -52 -69 5 -4 11 -2 13 5 6 17 23 15 23
-3 0 -9 -12 -20 -26 -25 -34 -13 -34 -14 -34 18 0 58 100 122 211 136 69 9
138 41 209 97 89 70 114 83 108 52z m-828 -3 c0 -5 -7 -10 -16 -10 -8 0 -12 5
-9 10 3 6 10 10 16 10 5 0 9 -4 9 -10z m-205 -30 c21 -17 53 -40 72 -51 19
-12 32 -24 29 -26 -5 -6 -105 54 -146 87 -19 14 -21 20 -9 20 9 0 33 -14 54
-30z m935 26 c0 -6 -132 -91 -155 -100 -26 -10 -15 2 60 58 51 38 95 58 95 42z
m-1045 -32 c17 -11 25 -13 25 -4 0 6 22 -4 49 -24 65 -48 124 -73 193 -81 31
-4 65 -13 75 -21 19 -15 19 -15 -57 -1 -14 2 -20 2 -15 0 10 -4 35 -50 35 -65
0 -4 -6 -5 -12 -3 -68 24 -72 26 -58 35 23 14 -7 38 -68 54 -55 15 -122 60
-122 83 0 9 -6 12 -17 9 -10 -3 -29 3 -43 14 -30 24 -19 26 15 4z m570 -35 c9
-17 14 -37 11 -45 -3 -7 -1 -16 4 -19 4 -3 10 1 13 7 2 7 7 10 11 7 3 -3 4
-14 0 -23 -6 -15 -8 -16 -24 -1 -10 9 -20 29 -23 44 -7 33 -37 38 -37 7 0 -27
-28 -68 -41 -61 -5 4 -9 13 -9 22 0 13 3 13 15 3 13 -11 15 -8 15 14 0 28 26
76 41 76 5 0 16 -14 24 -31z m-88 -11 c-3 -8 -6 -5 -6 6 -1 11 2 17 5 13 3 -3
4 -12 1 -19z m133 12 c0 -5 -4 -10 -10 -10 -5 0 -10 5 -10 10 0 6 5 10 10 10
6 0 10 -4 10 -10z m-57 -77 c6 -33 -12 -63 -24 -41 -8 15 0 68 11 68 4 0 10
-12 13 -27z m-173 -106 c0 -13 -5 -17 -16 -13 -9 3 -20 6 -25 6 -6 0 -8 4 -4
10 3 5 12 7 20 3 8 -3 15 0 15 6 0 6 -7 11 -15 11 -8 0 -19 9 -25 19 -18 34
-11 36 20 6 17 -16 30 -37 30 -48z m51 34 c38 -37 50 -73 29 -86 -15 -9 -50
14 -50 32 0 13 3 14 12 5 16 -16 28 -15 28 2 0 13 -35 47 -76 73 -18 11 -18
12 0 12 10 1 36 -16 57 -38z m69 29 c0 -5 -9 -10 -21 -10 -11 0 -17 5 -14 10
3 6 13 10 21 10 8 0 14 -4 14 -10z m105 0 c3 -5 -1 -10 -9 -10 -9 0 -16 5 -16
10 0 6 4 10 9 10 6 0 13 -4 16 -10z m-55 -30 c0 -5 -4 -10 -10 -10 -5 0 -10 5
-10 10 0 6 5 10 10 10 6 0 10 -4 10 -10z m-53 -6 c-3 -3 -12 -4 -19 -1 -8 3
-5 6 6 6 11 1 17 -2 13 -5z m110 0 c-3 -3 -12 -4 -19 -1 -8 3 -5 6 6 6 11 1
17 -2 13 -5z m-33 -20 c18 -7 21 -30 5 -39 -6 -4 -9 0 -7 11 2 14 -4 20 -26
22 -38 5 -49 -9 -30 -36 10 -15 22 -21 34 -17 17 5 17 3 7 -19 -12 -27 -27
-34 -27 -14 0 6 -11 26 -24 43 -19 24 -22 35 -13 44 12 12 56 15 81 5z m-24
-34 c0 -5 -4 -10 -10 -10 -5 0 -10 5 -10 10 0 6 5 10 10 10 6 0 10 -4 10 -10z"/>
<path d="M640 1990 c-25 -16 -4 -22 39 -10 23 6 41 13 41 15 0 9 -65 5 -80 -5z"/>
<path d="M1480 1991 c25 -15 90 -24 90 -13 0 14 -25 22 -68 22 -26 -1 -33 -3
-22 -9z"/>
<path d="M310 1920 c0 -5 5 -10 11 -10 7 0 18 -8 25 -17 7 -10 15 -15 19 -11
7 6 -33 48 -47 48 -4 0 -8 -4 -8 -10z"/>
<path d="M430 1915 c-19 -23 -8 -26 19 -4 16 13 18 19 8 19 -8 0 -20 -7 -27
-15z"/>
<path d="M1855 1920 c-4 -6 3 -10 14 -10 25 0 27 6 6 13 -8 4 -17 2 -20 -3z"/>
<path d="M1803 1856 c3 -8 1 -17 -6 -20 -8 -3 -8 -5 -1 -5 6 -1 17 5 23 13 9
11 8 15 -5 20 -11 4 -15 2 -11 -8z"/>
<path d="M1444 1346 c-10 -8 -16 -17 -12 -21 7 -7 48 16 48 27 0 12 -14 9 -36
-6z"/>
<path d="M1545 1720 c3 -5 11 -10 16 -10 6 0 7 5 4 10 -3 6 -11 10 -16 10 -6
0 -7 -4 -4 -10z"/>
<path d="M645 1730 c-3 -5 1 -10 9 -10 9 0 16 5 16 10 0 6 -4 10 -9 10 -6 0
-13 -4 -16 -10z"/>
<path d="M1280 1630 c0 -5 5 -10 10 -10 6 0 10 5 10 10 0 6 -4 10 -10 10 -5 0
-10 -4 -10 -10z"/>
<path d="M606 1584 c-9 -24 -2 -26 12 -4 7 11 8 20 3 20 -5 0 -12 -7 -15 -16z"/>
<path d="M1895 1600 c-6 -8 -11 -92 -11 -190 -1 -201 -11 -261 -57 -345 l-32
-60 0 -190 c0 -169 -2 -193 -19 -218 -10 -15 -29 -30 -42 -33 -13 -3 -24 -13
-24 -21 0 -9 6 -13 15 -9 39 15 -7 -44 -75 -95 -48 -37 -34 -45 24 -14 26 14
49 25 52 25 2 0 4 -11 4 -25 0 -14 4 -25 9 -25 17 0 32 28 27 52 -3 12 -2 39
3 58 l8 35 11 -27 c14 -34 27 -41 42 -23 10 13 10 19 -4 33 -9 10 -16 34 -16
53 l1 34 20 -27 c11 -16 24 -28 29 -28 17 0 16 35 -1 55 -21 24 -51 95 -40 95
4 0 18 -11 31 -25 12 -13 27 -22 31 -19 16 10 9 43 -10 49 -35 11 -56 72 -55
165 1 74 6 96 39 175 28 68 39 112 46 185 13 123 8 381 -6 360z"/>
<path d="M1850 652 c0 -5 7 -16 16 -23 14 -12 16 -11 13 5 -4 20 -29 35 -29
18z"/>
<path d="M1820 558 c0 -18 18 -34 28 -24 3 4 -2 14 -11 23 -16 16 -17 16 -17
1z"/>
<path d="M1210 1540 c0 -5 9 -10 20 -10 11 0 20 5 20 10 0 6 -9 10 -20 10 -11
0 -20 -4 -20 -10z"/>
<path d="M630 1330 c0 -5 5 -10 10 -10 6 0 10 5 10 10 0 6 -4 10 -10 10 -5 0
-10 -4 -10 -10z"/>
<path d="M440 1095 c0 -8 2 -15 4 -15 2 0 6 7 10 15 3 8 1 15 -4 15 -6 0 -10
-7 -10 -15z"/>
<path d="M1546 1331 c-13 -20 8 -72 36 -93 l30 -21 -7 24 c-23 74 -47 110 -59
90z"/>
<path d="M1735 1080 c-3 -5 -1 -10 4 -10 6 0 11 5 11 10 0 6 -2 10 -4 10 -3 0
-8 -4 -11 -10z"/>
<path d="M440 1275 c0 -9 6 -12 15 -9 8 4 15 10 15 15 0 5 -7 9 -15 9 -8 0
-15 -7 -15 -15z"/>
<path d="M1705 1280 c3 -5 17 -10 31 -10 13 0 24 5 24 10 0 6 -14 10 -31 10
-17 0 -28 -4 -24 -10z"/>
<path d="M677 1073 c-2 -10 -8 -27 -12 -38 -6 -17 -4 -17 14 4 22 24 28 51 12
51 -5 0 -11 -8 -14 -17z"/>
<path d="M586 932 c-2 -4 -1 -14 3 -21 6 -10 10 -9 14 3 6 16 -8 32 -17 18z"/>
<path d="M1048 1239 c-54 -21 -84 -105 -57 -161 27 -59 116 -82 173 -45 35 24
59 80 52 122 -13 68 -99 111 -168 84z m113 -48 c20 -20 29 -39 29 -61 0 -43
-47 -90 -90 -90 -44 0 -90 47 -90 92 1 81 93 117 151 59z"/>
<path d="M1046 1184 c-19 -19 -21 -34 -3 -34 17 1 47 25 47 39 0 16 -26 14
-44 -5z"/>
<path d="M1124 1184 c3 -9 6 -23 6 -32 1 -15 2 -15 11 1 12 21 5 47 -12 47 -6
0 -8 -7 -5 -16z"/>
<path d="M1045 1090 c-9 -14 42 -43 62 -35 15 6 15 8 3 13 -8 3 -21 11 -28 19
-16 15 -29 17 -37 3z"/>
</g>
</svg>
